<svg xmlns="http://www.w3.org/2000/svg" id="Layer_2" data-name="Layer 2" viewBox="95.62 388.39 808.73 223.21">
  <defs>
    <style>
      .cls-1 {
        fill: #277eba;
      }

      .cls-2 {
        fill: #144f7a;
      }

      .cls-3 {
        fill: none;
        stroke: #144f7a;
        stroke-miterlimit: 10;
        stroke-width: 2.95px;
      }

      .cls-4 {
        fill: #145883;
      }
    </style>
  </defs>
  <g>
    <g>
      <rect class="cls-1" x="168.55" y="488.66" width="51.84" height="9.05" />
      <rect class="cls-1" x="168.55" y="501.95" width="51.84" height="11.22" />
      <rect class="cls-1" x="176.11" y="502.69" width="16.1" height="2.59" transform="translate(-319.82 688.14) rotate(-90)" />
      <rect class="cls-1" x="196.22" y="503.19" width="16.1" height="3.47" transform="translate(-300.65 709.2) rotate(-90)" />
      <path class="cls-2" d="M136.47,424.43h18.32a0,0,0,0,1,0,0V575.57a0,0,0,0,1,0,0H136.47A11.47,11.47,0,0,1,125,564.1V435.9A11.47,11.47,0,0,1,136.47,424.43Z" />
      <rect class="cls-1" x="140.65" y="424.43" width="29.79" height="151.13" rx="11.47" />
      <path class="cls-2" d="M228.67,448.25h17a3.55,3.55,0,0,1,3.55,3.55v90.93a9.21,9.21,0,0,1-9.21,9.21H226.4a6.95,6.95,0,0,1-6.95-6.95V457.46A9.21,9.21,0,0,1,228.67,448.25Z" />
      <path class="cls-1" d="M234.72,457.68c0-.59.46-5.77,4.53-8.17a10.05,10.05,0,0,1,5.15-1.26,9.93,9.93,0,0,1,4.9,1.13,9.21,9.21,0,0,1,2.89,2.52c2.12,2.71,13.53,19.53,28.91,42.73a2.56,2.56,0,0,1,0,3.64l-34.94,51.66a10.16,10.16,0,0,1-2.13,1.13,7.53,7.53,0,0,1-3.65.63,6.39,6.39,0,0,1-3.27-1.39,7,7,0,0,1-2.39-5Z" />
    </g>
    <rect class="cls-3" x="97.1" y="392.92" width="212.65" height="214.16" rx="26.9" />
  </g>
</svg>